# xmcd
#
# Track frame offsets: 
#        150
#        22639
#        43491
#        64194
#        84844
#        107407
#        125654
#        149171
#
# Disc length: 2237 seconds
#
# Revision: 0
# Processed by: cddbd v1.5.2PL0 Copyright (c) Steve Scherf et al.
# Submitted via: ExactAudioCopy v0.99pb1
#
DISCID=6a08bb08
DTITLE=Роксана - Восточная Ночь
DYEAR=2007
DGENRE=Pop
TTITLE0=Лё Багие
TTITLE1=Яба-Яба
TTITLE2=Гёрден Ме
TTITLE3=Хабиби Матрухши
TTITLE4=Нассам
TTITLE5=Гирна
TTITLE6=Так-Так
TTITLE7=Вэли Я Вэли
EXTD=
EXTT0=
EXTT1=
EXTT2=
EXTT3=
EXTT4=
EXTT5=
EXTT6=
EXTT7=
PLAYORDER=
